<svg width="50" height="8" viewBox="0 0 50 8" fill="none" xmlns="http://www.w3.org/2000/svg">
<g clip-path="url(#clip0_244_12)">
<g clip-path="url(#clip1_244_12)">
<path d="M45.5015 0.28125C45.4095 0.109375 45.2151 0 45.0015 0C44.788 0 44.5953 0.109375 44.5015 0.28125L43.3852 2.34844L40.8921 2.67969C40.6838 2.70781 40.5102 2.83906 40.446 3.01875C40.3817 3.19844 40.4338 3.39688 40.5831 3.52969L42.3921 5.14063L41.9651 7.41719C41.9303 7.60469 42.0171 7.79531 42.189 7.90625C42.3609 8.01719 42.5883 8.03125 42.7758 7.94219L45.0033 6.87188L47.2307 7.94219C47.4182 8.03125 47.6456 8.01875 47.8175 7.90625C47.9894 7.79375 48.0762 7.60469 48.0415 7.41719L47.6126 5.14063L49.4217 3.52969C49.571 3.39688 49.6248 3.19844 49.5588 3.01875C49.4928 2.83906 49.321 2.70781 49.1126 2.67969L46.6178 2.34844L45.5015 0.28125Z" fill="#727272"/>
</g>
<g clip-path="url(#clip2_244_12)">
<path d="M35.5015 0.28125C35.4095 0.109375 35.2151 0 35.0015 0C34.788 0 34.5953 0.109375 34.5015 0.28125L33.3852 2.34844L30.8921 2.67969C30.6838 2.70781 30.5102 2.83906 30.446 3.01875C30.3817 3.19844 30.4338 3.39688 30.5831 3.52969L32.3921 5.14063L31.9651 7.41719C31.9303 7.60469 32.0171 7.79531 32.189 7.90625C32.3609 8.01719 32.5883 8.03125 32.7758 7.94219L35.0033 6.87188L37.2307 7.94219C37.4182 8.03125 37.6456 8.01875 37.8175 7.90625C37.9894 7.79375 38.0762 7.60469 38.0415 7.41719L37.6126 5.14063L39.4217 3.52969C39.571 3.39688 39.6248 3.19844 39.5588 3.01875C39.4928 2.83906 39.321 2.70781 39.1126 2.67969L36.6178 2.34844L35.5015 0.28125Z" fill="#727272"/>
</g>
<g clip-path="url(#clip3_244_12)">
<path d="M25.5015 0.28125C25.4095 0.109375 25.2151 0 25.0015 0C24.788 0 24.5953 0.109375 24.5015 0.28125L23.3852 2.34844L20.8921 2.67969C20.6838 2.70781 20.5102 2.83906 20.446 3.01875C20.3817 3.19844 20.4338 3.39688 20.5831 3.52969L22.3921 5.14063L21.9651 7.41719C21.9303 7.60469 22.0171 7.79531 22.189 7.90625C22.3609 8.01719 22.5883 8.03125 22.7758 7.94219L25.0033 6.87188L27.2307 7.94219C27.4182 8.03125 27.6456 8.01875 27.8175 7.90625C27.9894 7.79375 28.0762 7.60469 28.0415 7.41719L27.6126 5.14063L29.4217 3.52969C29.571 3.39688 29.6248 3.19844 29.5588 3.01875C29.4928 2.83906 29.321 2.70781 29.1126 2.67969L26.6178 2.34844L25.5015 0.28125Z" fill="#727272"/>
</g>
<g clip-path="url(#clip4_244_12)">
<path d="M15.5015 0.28125C15.4095 0.109375 15.2151 0 15.0015 0C14.788 0 14.5953 0.109375 14.5015 0.28125L13.3852 2.34844L10.8921 2.67969C10.6838 2.70781 10.5102 2.83906 10.446 3.01875C10.3817 3.19844 10.4338 3.39688 10.5831 3.52969L12.3921 5.14063L11.9651 7.41719C11.9303 7.60469 12.0171 7.79531 12.189 7.90625C12.3609 8.01719 12.5883 8.03125 12.7758 7.94219L15.0033 6.87188L17.2307 7.94219C17.4182 8.03125 17.6456 8.01875 17.8175 7.90625C17.9894 7.79375 18.0762 7.60469 18.0415 7.41719L17.6126 5.14063L19.4217 3.52969C19.571 3.39688 19.6248 3.19844 19.5588 3.01875C19.4928 2.83906 19.321 2.70781 19.1126 2.67969L16.6178 2.34844L15.5015 0.28125Z" fill="#727272"/>
</g>
<g clip-path="url(#clip5_244_12)">
<path d="M5.50152 0.28125C5.40951 0.109375 5.21506 0 5.00152 0C4.78798 0 4.59527 0.109375 4.50152 0.28125L3.3852 2.34844L0.892148 2.67969C0.683814 2.70781 0.510203 2.83906 0.445967 3.01875C0.381731 3.19844 0.433814 3.39688 0.58312 3.52969L2.39215 5.14063L1.96506 7.41719C1.93034 7.60469 2.01715 7.79531 2.18902 7.90625C2.3609 8.01719 2.58833 8.03125 2.77583 7.94219L5.00326 6.87188L7.23069 7.94219C7.41819 8.03125 7.64562 8.01875 7.81749 7.90625C7.98937 7.79375 8.07618 7.60469 8.04145 7.41719L7.61263 5.14063L9.42166 3.52969C9.57097 3.39688 9.62479 3.19844 9.55881 3.01875C9.49284 2.83906 9.32097 2.70781 9.11263 2.67969L6.61784 2.34844L5.50152 0.28125Z" fill="#727272"/>
</g>
</g>
<defs>
<clipPath id="clip0_244_12">
<rect width="50" height="8" fill="white"/>
</clipPath>
<clipPath id="clip1_244_12">
<rect width="10" height="8" fill="white" transform="translate(40)"/>
</clipPath>
<clipPath id="clip2_244_12">
<rect width="10" height="8" fill="white" transform="translate(30)"/>
</clipPath>
<clipPath id="clip3_244_12">
<rect width="10" height="8" fill="white" transform="translate(20)"/>
</clipPath>
<clipPath id="clip4_244_12">
<rect width="10" height="8" fill="white" transform="translate(10)"/>
</clipPath>
<clipPath id="clip5_244_12">
<rect width="10" height="8" fill="white"/>
</clipPath>
</defs>
</svg>
