<svg width="10" height="8" viewBox="0 0 10 8" fill="none" xmlns="http://www.w3.org/2000/svg">
<g clip-path="url(#clip0_244_10)">
<path d="M5.50152 0.28125C5.40951 0.109375 5.21506 0 5.00152 0C4.78798 0 4.59527 0.109375 4.50152 0.28125L3.3852 2.34844L0.892148 2.67969C0.683814 2.70781 0.510203 2.83906 0.445967 3.01875C0.381731 3.19844 0.433814 3.39688 0.58312 3.52969L2.39215 5.14063L1.96506 7.41719C1.93034 7.60469 2.01715 7.79531 2.18902 7.90625C2.3609 8.01719 2.58833 8.03125 2.77583 7.94219L5.00326 6.87188L7.23069 7.94219C7.41819 8.03125 7.64562 8.01875 7.81749 7.90625C7.98937 7.79375 8.07618 7.60469 8.04145 7.41719L7.61263 5.14063L9.42166 3.52969C9.57097 3.39688 9.62479 3.19844 9.55881 3.01875C9.49284 2.83906 9.32097 2.70781 9.11263 2.67969L6.61784 2.34844L5.50152 0.28125Z" fill="#727272"/>
</g>
<defs>
<clipPath id="clip0_244_10">
<rect width="10" height="8" fill="white"/>
</clipPath>
</defs>
</svg>
