<svg width="540" height="190" viewBox="0 0 540 190" fill="none" xmlns="http://www.w3.org/2000/svg">
<path d="M31.8117 129.884H35.2677L37.4547 136.229L39.6687 129.884H43.0977L39.8037 138.605L42.2337 144.707L47.6607 129.83H51.7107L44.0427 149H40.8297L37.4547 140.954L34.1067 149H30.8937L23.2527 129.83H27.2487L32.7027 144.707L35.0787 138.605L31.8117 129.884ZM64.8256 129.884H68.2816L70.4686 136.229L72.6826 129.884H76.1116L72.8176 138.605L75.2476 144.707L80.6746 129.83H84.7246L77.0566 149H73.8436L70.4686 140.954L67.1206 149H63.9076L56.2666 129.83H60.2626L65.7166 144.707L68.0926 138.605L64.8256 129.884ZM97.8394 129.884H101.295L103.482 136.229L105.696 129.884H109.125L105.831 138.605L108.261 144.707L113.688 129.83H117.738L110.07 149H106.857L103.482 140.954L100.134 149H96.9214L89.2804 129.83H93.2764L98.7304 144.707L101.106 138.605L97.8394 129.884ZM122.12 149V145.112H125.09V149H122.12ZM148.839 149V136.418L143.925 145.787H141.846L136.932 136.418V149H133.206V129.83H137.202L142.872 140.738L148.596 129.83H152.565V149H148.839ZM169.285 149.135C167.755 149.135 166.45 148.883 165.37 148.379C164.308 147.857 163.444 147.146 162.778 146.246C162.13 145.346 161.653 144.329 161.347 143.195C161.041 142.043 160.888 140.846 160.888 139.604V129.83H164.614V139.604C164.614 140.396 164.686 141.17 164.83 141.926C164.992 142.664 165.253 143.33 165.613 143.924C165.973 144.518 166.45 144.986 167.044 145.328C167.638 145.67 168.376 145.841 169.258 145.841C170.158 145.841 170.905 145.67 171.499 145.328C172.111 144.968 172.588 144.491 172.93 143.897C173.29 143.303 173.551 142.637 173.713 141.899C173.875 141.143 173.956 140.378 173.956 139.604V129.83H177.655V139.604C177.655 140.918 177.493 142.151 177.169 143.303C176.863 144.455 176.368 145.472 175.684 146.354C175.018 147.218 174.154 147.902 173.092 148.406C172.03 148.892 170.761 149.135 169.285 149.135ZM201.442 144.059C201.442 145.139 201.163 146.048 200.605 146.786C200.047 147.506 199.291 148.055 198.337 148.433C197.401 148.811 196.375 149 195.259 149H185.998V129.83H196.258C197.158 129.83 197.932 130.073 198.58 130.559C199.246 131.027 199.75 131.639 200.092 132.395C200.452 133.133 200.632 133.907 200.632 134.717C200.632 135.635 200.398 136.508 199.93 137.336C199.462 138.164 198.778 138.776 197.878 139.172C198.976 139.496 199.84 140.081 200.47 140.927C201.118 141.773 201.442 142.817 201.442 144.059ZM197.689 143.357C197.689 142.871 197.59 142.439 197.392 142.061C197.194 141.665 196.924 141.359 196.582 141.143C196.258 140.909 195.88 140.792 195.448 140.792H189.724V145.841H195.259C195.709 145.841 196.114 145.733 196.474 145.517C196.852 145.283 197.149 144.977 197.365 144.599C197.581 144.221 197.689 143.807 197.689 143.357ZM189.724 133.016V137.849H194.692C195.106 137.849 195.484 137.75 195.826 137.552C196.168 137.354 196.438 137.075 196.636 136.715C196.852 136.355 196.96 135.923 196.96 135.419C196.96 134.933 196.861 134.51 196.663 134.15C196.483 133.79 196.231 133.511 195.907 133.313C195.601 133.115 195.25 133.016 194.854 133.016H189.724ZM213.728 129.83H217.508L224.555 149H220.721L218.939 144.221H212.243L210.488 149H206.654L213.728 129.83ZM218.264 141.602L215.618 133.691L212.864 141.602H218.264ZM231.248 149V129.857H234.974V138.956L243.02 129.83H247.124L239.78 138.335L247.583 149H243.371L237.404 140.738L234.974 143.276V149H231.248ZM253.468 149V145.112H256.438V149H253.468ZM275.975 134.852C275.849 134.726 275.615 134.555 275.273 134.339C274.949 134.123 274.544 133.916 274.058 133.718C273.59 133.52 273.077 133.349 272.519 133.205C271.961 133.043 271.394 132.962 270.818 132.962C269.81 132.962 269.045 133.151 268.523 133.529C268.019 133.907 267.767 134.438 267.767 135.122C267.767 135.644 267.929 136.058 268.253 136.364C268.577 136.67 269.063 136.931 269.711 137.147C270.359 137.363 271.169 137.597 272.141 137.849C273.401 138.155 274.49 138.533 275.408 138.983C276.344 139.415 277.055 139.991 277.541 140.711C278.045 141.413 278.297 142.349 278.297 143.519C278.297 144.545 278.108 145.427 277.73 146.165C277.352 146.885 276.83 147.47 276.164 147.92C275.498 148.37 274.742 148.703 273.896 148.919C273.05 149.117 272.15 149.216 271.196 149.216C270.242 149.216 269.288 149.117 268.334 148.919C267.38 148.721 266.462 148.442 265.58 148.082C264.698 147.704 263.888 147.254 263.15 146.732L264.797 143.519C264.959 143.681 265.247 143.897 265.661 144.167C266.075 144.419 266.579 144.68 267.173 144.95C267.767 145.202 268.415 145.418 269.117 145.598C269.819 145.778 270.53 145.868 271.25 145.868C272.258 145.868 273.023 145.697 273.545 145.355C274.067 145.013 274.328 144.527 274.328 143.897C274.328 143.321 274.121 142.871 273.707 142.547C273.293 142.223 272.717 141.944 271.979 141.71C271.241 141.458 270.368 141.188 269.36 140.9C268.154 140.558 267.146 140.18 266.336 139.766C265.526 139.334 264.923 138.794 264.527 138.146C264.131 137.498 263.933 136.688 263.933 135.716C263.933 134.402 264.239 133.304 264.851 132.422C265.481 131.522 266.327 130.847 267.389 130.397C268.451 129.929 269.63 129.695 270.926 129.695C271.826 129.695 272.672 129.794 273.464 129.992C274.274 130.19 275.03 130.451 275.732 130.775C276.434 131.099 277.064 131.45 277.622 131.828L275.975 134.852ZM300.04 133.097H293.911V149H290.212V133.097H284.083V129.83H300.04V133.097ZM314.742 149.135C313.338 149.135 312.06 148.865 310.908 148.325C309.774 147.785 308.793 147.056 307.965 146.138C307.155 145.202 306.525 144.158 306.075 143.006C305.625 141.836 305.4 140.639 305.4 139.415C305.4 138.137 305.634 136.922 306.102 135.77C306.588 134.6 307.245 133.565 308.073 132.665C308.919 131.747 309.909 131.027 311.043 130.505C312.195 129.965 313.455 129.695 314.823 129.695C316.209 129.695 317.469 129.974 318.603 130.532C319.755 131.09 320.736 131.837 321.546 132.773C322.356 133.709 322.986 134.753 323.436 135.905C323.886 137.057 324.111 138.245 324.111 139.469C324.111 140.729 323.877 141.944 323.409 143.114C322.941 144.266 322.284 145.301 321.438 146.219C320.61 147.119 319.62 147.83 318.468 148.352C317.334 148.874 316.092 149.135 314.742 149.135ZM309.18 139.415C309.18 140.243 309.306 141.044 309.558 141.818C309.81 142.592 310.17 143.285 310.638 143.897C311.124 144.491 311.709 144.968 312.393 145.328C313.095 145.67 313.887 145.841 314.769 145.841C315.669 145.841 316.47 145.661 317.172 145.301C317.874 144.923 318.459 144.428 318.927 143.816C319.395 143.186 319.746 142.493 319.98 141.737C320.232 140.963 320.358 140.189 320.358 139.415C320.358 138.587 320.223 137.795 319.953 137.039C319.701 136.265 319.332 135.581 318.846 134.987C318.378 134.375 317.793 133.898 317.091 133.556C316.407 133.196 315.633 133.016 314.769 133.016C313.851 133.016 313.041 133.205 312.339 133.583C311.655 133.943 311.079 134.429 310.611 135.041C310.143 135.653 309.783 136.337 309.531 137.093C309.297 137.849 309.18 138.623 309.18 139.415ZM331.559 149V129.83H340.037C340.919 129.83 341.729 130.01 342.467 130.37C343.223 130.73 343.871 131.216 344.411 131.828C344.969 132.44 345.392 133.124 345.68 133.88C345.986 134.636 346.139 135.41 346.139 136.202C346.139 137.012 345.995 137.795 345.707 138.551C345.437 139.289 345.041 139.937 344.519 140.495C343.997 141.053 343.385 141.485 342.683 141.791L347.057 149H342.953L339.011 142.574H335.285V149H331.559ZM335.285 139.307H339.956C340.424 139.307 340.838 139.172 341.198 138.902C341.558 138.614 341.846 138.236 342.062 137.768C342.278 137.3 342.386 136.778 342.386 136.202C342.386 135.59 342.26 135.059 342.008 134.609C341.756 134.141 341.432 133.772 341.036 133.502C340.658 133.232 340.244 133.097 339.794 133.097H335.285V139.307ZM367.416 145.733V149H354.105V129.83H367.173V133.097H357.831V137.714H365.904V140.738H357.831V145.733H367.416ZM374.479 149V145.112H377.449V149H374.479ZM384.22 139.28C384.22 138.11 384.427 136.967 384.841 135.851C385.273 134.717 385.894 133.691 386.704 132.773C387.514 131.837 388.504 131.099 389.674 130.559C390.844 130.001 392.176 129.722 393.67 129.722C395.434 129.722 396.955 130.109 398.233 130.883C399.529 131.657 400.492 132.665 401.122 133.907L398.26 135.878C397.936 135.158 397.513 134.591 396.991 134.177C396.469 133.745 395.911 133.448 395.317 133.286C394.723 133.106 394.138 133.016 393.562 133.016C392.626 133.016 391.807 133.205 391.105 133.583C390.421 133.961 389.845 134.456 389.377 135.068C388.909 135.68 388.558 136.364 388.324 137.12C388.108 137.876 388 138.632 388 139.388C388 140.234 388.135 141.053 388.405 141.845C388.675 142.619 389.053 143.312 389.539 143.924C390.043 144.518 390.637 144.995 391.321 145.355C392.023 145.697 392.788 145.868 393.616 145.868C394.21 145.868 394.813 145.769 395.425 145.571C396.037 145.373 396.604 145.058 397.126 144.626C397.648 144.194 398.053 143.636 398.341 142.952L401.392 144.707C401.014 145.661 400.393 146.471 399.529 147.137C398.683 147.803 397.729 148.307 396.667 148.649C395.605 148.991 394.552 149.162 393.508 149.162C392.14 149.162 390.889 148.883 389.755 148.325C388.621 147.749 387.64 146.993 386.812 146.057C386.002 145.103 385.363 144.041 384.895 142.871C384.445 141.683 384.22 140.486 384.22 139.28ZM416.425 149.135C415.021 149.135 413.743 148.865 412.591 148.325C411.457 147.785 410.476 147.056 409.648 146.138C408.838 145.202 408.208 144.158 407.758 143.006C407.308 141.836 407.083 140.639 407.083 139.415C407.083 138.137 407.317 136.922 407.785 135.77C408.271 134.6 408.928 133.565 409.756 132.665C410.602 131.747 411.592 131.027 412.726 130.505C413.878 129.965 415.138 129.695 416.506 129.695C417.892 129.695 419.152 129.974 420.286 130.532C421.438 131.09 422.419 131.837 423.229 132.773C424.039 133.709 424.669 134.753 425.119 135.905C425.569 137.057 425.794 138.245 425.794 139.469C425.794 140.729 425.56 141.944 425.092 143.114C424.624 144.266 423.967 145.301 423.121 146.219C422.293 147.119 421.303 147.83 420.151 148.352C419.017 148.874 417.775 149.135 416.425 149.135ZM410.863 139.415C410.863 140.243 410.989 141.044 411.241 141.818C411.493 142.592 411.853 143.285 412.321 143.897C412.807 144.491 413.392 144.968 414.076 145.328C414.778 145.67 415.57 145.841 416.452 145.841C417.352 145.841 418.153 145.661 418.855 145.301C419.557 144.923 420.142 144.428 420.61 143.816C421.078 143.186 421.429 142.493 421.663 141.737C421.915 140.963 422.041 140.189 422.041 139.415C422.041 138.587 421.906 137.795 421.636 137.039C421.384 136.265 421.015 135.581 420.529 134.987C420.061 134.375 419.476 133.898 418.774 133.556C418.09 133.196 417.316 133.016 416.452 133.016C415.534 133.016 414.724 133.205 414.022 133.583C413.338 133.943 412.762 134.429 412.294 135.041C411.826 135.653 411.466 136.337 411.214 137.093C410.98 137.849 410.863 138.623 410.863 139.415ZM448.875 149V136.418L443.961 145.787H441.882L436.968 136.418V149H433.242V129.83H437.238L442.908 140.738L448.632 129.83H452.601V149H448.875ZM460.761 149V145.112H463.731V149H460.761ZM487.292 144.059C487.292 145.139 487.013 146.048 486.455 146.786C485.897 147.506 485.141 148.055 484.187 148.433C483.251 148.811 482.225 149 481.109 149H471.848V129.83H482.108C483.008 129.83 483.782 130.073 484.43 130.559C485.096 131.027 485.6 131.639 485.942 132.395C486.302 133.133 486.482 133.907 486.482 134.717C486.482 135.635 486.248 136.508 485.78 137.336C485.312 138.164 484.628 138.776 483.728 139.172C484.826 139.496 485.69 140.081 486.32 140.927C486.968 141.773 487.292 142.817 487.292 144.059ZM483.539 143.357C483.539 142.871 483.44 142.439 483.242 142.061C483.044 141.665 482.774 141.359 482.432 141.143C482.108 140.909 481.73 140.792 481.298 140.792H475.574V145.841H481.109C481.559 145.841 481.964 145.733 482.324 145.517C482.702 145.283 482.999 144.977 483.215 144.599C483.431 144.221 483.539 143.807 483.539 143.357ZM475.574 133.016V137.849H480.542C480.956 137.849 481.334 137.75 481.676 137.552C482.018 137.354 482.288 137.075 482.486 136.715C482.702 136.355 482.81 135.923 482.81 135.419C482.81 134.933 482.711 134.51 482.513 134.15C482.333 133.79 482.081 133.511 481.757 133.313C481.451 133.115 481.1 133.016 480.704 133.016H475.574ZM494.789 149V129.83H503.267C504.149 129.83 504.959 130.01 505.697 130.37C506.453 130.73 507.101 131.216 507.641 131.828C508.199 132.44 508.622 133.124 508.91 133.88C509.216 134.636 509.369 135.41 509.369 136.202C509.369 137.012 509.225 137.795 508.937 138.551C508.667 139.289 508.271 139.937 507.749 140.495C507.227 141.053 506.615 141.485 505.913 141.791L510.287 149H506.183L502.241 142.574H498.515V149H494.789ZM498.515 139.307H503.186C503.654 139.307 504.068 139.172 504.428 138.902C504.788 138.614 505.076 138.236 505.292 137.768C505.508 137.3 505.616 136.778 505.616 136.202C505.616 135.59 505.49 135.059 505.238 134.609C504.986 134.141 504.662 133.772 504.266 133.502C503.888 133.232 503.474 133.097 503.024 133.097H498.515V139.307Z" fill="#175073"/>
<path d="M135 112V40H145.85L170.75 91L195.65 40H206.5V112H195.25V65.85L173.15 112H168.35L146.3 65.85V112H135ZM249.547 113.5C243.814 113.5 238.764 112.333 234.397 110C230.064 107.667 226.664 104.383 224.197 100.15C221.764 95.9167 220.547 90.95 220.547 85.25V40.1L232.747 40V84.95C232.747 87.65 233.197 90.0667 234.097 92.2C235.03 94.3333 236.28 96.15 237.847 97.65C239.414 99.1167 241.214 100.233 243.247 101C245.28 101.767 247.38 102.15 249.547 102.15C251.78 102.15 253.897 101.767 255.897 101C257.93 100.2 259.73 99.0667 261.297 97.6C262.864 96.1 264.097 94.2833 264.997 92.15C265.897 90.0167 266.347 87.6167 266.347 84.95V40H278.547V85.25C278.547 90.95 277.314 95.9167 274.847 100.15C272.414 104.383 269.014 107.667 264.647 110C260.314 112.333 255.28 113.5 249.547 113.5ZM292.52 112V40H321.07C325.936 40 329.92 40.9833 333.02 42.95C336.153 44.8833 338.47 47.3667 339.97 50.4C341.503 53.4333 342.27 56.5667 342.27 59.8C342.27 63.7667 341.32 67.1333 339.42 69.9C337.553 72.6667 335.003 74.5333 331.77 75.5V73C336.303 74.0333 339.736 76.1833 342.07 79.45C344.436 82.7167 345.62 86.4333 345.62 90.6C345.62 94.8667 344.803 98.6 343.17 101.8C341.536 105 339.103 107.5 335.87 109.3C332.67 111.1 328.703 112 323.97 112H292.52ZM304.72 100.65H322.47C324.57 100.65 326.453 100.233 328.12 99.4C329.786 98.5333 331.086 97.3333 332.02 95.8C332.986 94.2333 333.47 92.3833 333.47 90.25C333.47 88.3167 333.053 86.5833 332.22 85.05C331.386 83.5167 330.17 82.3 328.57 81.4C326.97 80.4667 325.053 80 322.82 80H304.72V100.65ZM304.72 68.75H320.92C322.653 68.75 324.203 68.4167 325.57 67.75C326.936 67.0833 328.02 66.1 328.82 64.8C329.62 63.5 330.02 61.9 330.02 60C330.02 57.5 329.22 55.4167 327.62 53.75C326.02 52.0833 323.786 51.25 320.92 51.25H304.72V68.75ZM350.605 112L373.305 40H390.955L413.655 112H401.255L380.655 47.4H383.355L363.005 112H350.605ZM363.255 96.4V85.15H401.055V96.4H363.255ZM422.695 112V40H434.745V73.4L463.495 40H478.295L447.345 75.3L480.395 112H465.095L434.745 78.4V112H422.695ZM492.441 112V100.95H504.491V112H492.441ZM492.441 94V40H504.491V94H492.441Z" fill="#F2CB05"/>
<g clip-path="url(#clip0_2_4)">
<path d="M23 41.125V101.774C23 111.543 39.6964 111.873 39.6964 101.774V60.2982C41.1953 51.1027 56.3929 51.5373 56.3929 61.4281V91.9002C56.3929 101.965 74.6071 101.982 74.6071 91.9002V71.7188C75.6127 62.2104 91.3036 62.5928 91.3036 72.4662V76.6033C91.3036 87.0156 108 86.442 108 76.6033V41.125H23Z" fill="#175073"/>
</g>
<defs>
<clipPath id="clip0_2_4">
<rect width="85" height="69" fill="white" transform="translate(23 41)"/>
</clipPath>
</defs>
</svg>
